<svg id="Capa_1" enable-background="new 0 0 497 497" height="512" viewBox="0 0 497 497" width="512" xmlns="http://www.w3.org/2000/svg"><g><path d="m91.197 0c-5.662 0-10.201 4.701-9.996 10.36 5.399 148.674 17.013 285.114 45.604 448.72h77.272 88.846 77.272c28.689-164.167 40.231-300.729 45.604-448.72.205-5.659-4.334-10.36-9.996-10.36z" fill="#e5eef9"/><path d="m126.805 459.08v22.92c0 8.284 6.716 15 15 15h214.455c8.284 0 15-6.716 15-15v-22.92z" fill="#d5e3f4"/><path d="m118.497 147.021c7.019 97.574 17.797 187.409 33.614 282.058h192.777c15.819-94.661 26.597-184.487 33.615-282.058z" fill="#98bce5"/><path d="m405.803 0h-39.685c5.662 0 10.201 4.701 9.996 10.359-5.373 147.992-16.915 284.553-45.604 448.72h39.685c28.689-164.167 40.231-300.729 45.604-448.72.205-5.658-4.334-10.359-9.996-10.359z" fill="#d5e3f4"/><path d="m331.575 459.08v22.92c0 8.284-6.716 15-15 15h39.685c8.284 0 15-6.716 15-15v-22.92z" fill="#b3ceec"/><path d="m338.819 147.021c-7.018 97.572-17.796 187.398-33.615 282.058h39.685c15.819-94.661 26.597-184.487 33.615-282.058z" fill="#7bacdf"/></g></svg>