<?xml version="1.0" encoding="iso-8859-1"?>
<!-- Generator: Adobe Illustrator 19.0.0, SVG Export Plug-In . SVG Version: 6.00 Build 0)  -->
<svg version="1.1" id="Capa_1" xmlns="http://www.w3.org/2000/svg" xmlns:xlink="http://www.w3.org/1999/xlink" x="0px" y="0px"
	 viewBox="0 0 512 512" style="enable-background:new 0 0 512 512;" xml:space="preserve">
<rect x="367.824" y="385.439" transform="matrix(0.7761 -0.6306 0.6306 0.7761 -182.1242 343.6024)" style="fill:#B76035;" width="49.989" height="85.679"/>
<rect x="392.127" y="376.806" transform="matrix(0.7761 -0.6306 0.6306 0.7761 -174.3033 348.3646)" style="fill:#A04C27;" width="22.617" height="85.679"/>
<path style="fill:#B76035;" d="M315.937,435.566l99.711-81.023c2.207-1.794,2.543-5.037,0.749-7.244l-21.663-26.66
	c-1.794-2.207-5.037-2.543-7.244-0.749l-99.711,81.023c-2.207,1.794-2.543,5.037-0.749,7.244l21.663,26.66
	C310.487,437.024,313.73,437.36,315.937,435.566z"/>
<path style="fill:#A04C27;" d="M405.058,363.149l10.591-8.606c2.207-1.794,2.543-5.037,0.749-7.244l-21.663-26.66
	c-1.794-2.207-5.037-2.543-7.244-0.749l-10.591,8.606L405.058,363.149z"/>
<path style="fill:#B7C1CA;" d="M306.944,385.34L54.647,74.851c-0.612-0.753-0.998-1.663-1.115-2.625L44.756,0.118L337.563,360.46
	L306.944,385.34z"/>
<path style="fill:#6B6C8A;" d="M368.325,335.463L116.028,24.974c-0.612-0.753-1.423-1.317-2.342-1.629L44.9,0.001l292.807,360.342
	L368.325,335.463z"/>
<path style="fill:#5D5F7A;" d="M368.326,335.463l-12.483,10.145L104.597,36.407c-0.612-0.753-1.423-1.317-2.342-1.629L62.082,21.145
	L44.902,0l68.785,23.346c0.918,0.312,1.73,0.876,2.342,1.629L368.326,335.463z"/>
<circle style="fill:#FFDBA9;" cx="351.71" cy="377.73" r="40.43"/>
<path style="fill:#FFC473;" d="M377.204,409.105c-10.299,8.374-23.472,10.835-35.42,7.807c5.51-1.401,10.814-3.986,15.511-7.807
	c17.334-14.079,19.96-39.539,5.881-56.874c-5.706-7.024-13.286-11.638-21.444-13.688c14.79-3.759,31.094,1.061,41.352,13.688
	C397.164,369.565,394.538,395.025,377.204,409.105z"/>
<circle style="fill:#B76035;" cx="432.97" cy="477.73" r="34.27"/>
<path style="fill:#A04C27;" d="M454.584,504.323c-11.278,9.167-26.624,9.98-38.551,3.203c5.644-0.958,11.134-3.337,15.892-7.199
	c14.687-11.927,16.922-33.514,4.985-48.202c-2.771-3.409-6.056-6.149-9.651-8.198c11.772-1.978,24.245,2.266,32.309,12.184
	C471.506,470.809,469.271,492.386,454.584,504.323z"/>
<rect x="94.217" y="385.466" transform="matrix(-0.7761 -0.6306 0.6306 -0.7761 -58.3602 835.8906)" style="fill:#B76035;" width="49.989" height="85.679"/>
<rect x="97.278" y="376.832" transform="matrix(-0.7761 -0.6306 0.6306 -0.7761 -71.7865 813.8566)" style="fill:#A04C27;" width="22.617" height="85.679"/>
<path style="fill:#B76035;" d="M196.063,435.566l-99.711-81.023c-2.207-1.794-2.543-5.037-0.749-7.244l21.663-26.66
	c1.794-2.207,5.037-2.543,7.244-0.749l99.711,81.023c2.207,1.794,2.543,5.037,0.749,7.244l-21.663,26.66
	C201.513,437.024,198.27,437.36,196.063,435.566z"/>
<path style="fill:#A04C27;" d="M106.942,363.149l-10.591-8.606c-2.207-1.794-2.543-5.037-0.749-7.244l21.663-26.66
	c1.794-2.207,5.037-2.543,7.244-0.749l10.591,8.606L106.942,363.149z"/>
<path style="fill:#B7C1CA;" d="M205.056,385.34L457.353,74.851c0.612-0.753,0.998-1.663,1.115-2.625l8.776-72.108L174.437,360.46
	L205.056,385.34z"/>
<path style="fill:#6B6C8A;" d="M143.675,335.463L395.972,24.974c0.612-0.753,1.423-1.317,2.342-1.629L467.1,0.001L174.293,360.343
	L143.675,335.463z"/>
<path style="fill:#5D5F7A;" d="M143.674,335.463l12.483,10.145L407.403,36.407c0.612-0.753,1.423-1.317,2.342-1.629l40.173-13.633
	L467.098,0l-68.785,23.346c-0.918,0.312-1.73,0.876-2.342,1.629L143.674,335.463z"/>
<circle style="fill:#FFDBA9;" cx="160.29" cy="377.73" r="40.43"/>
<path style="fill:#FFC473;" d="M134.796,409.105c10.299,8.374,23.472,10.835,35.42,7.807c-5.51-1.401-10.814-3.986-15.511-7.807
	c-17.334-14.079-19.96-39.539-5.881-56.874c5.706-7.024,13.286-11.638,21.444-13.688c-14.79-3.759-31.094,1.061-41.352,13.688
	C114.836,369.565,117.462,395.025,134.796,409.105z"/>
<circle style="fill:#B76035;" cx="79.03" cy="477.73" r="34.27"/>
<path style="fill:#A04C27;" d="M57.416,504.323c11.278,9.167,26.624,9.98,38.551,3.203c-5.644-0.958-11.134-3.337-15.892-7.199
	c-14.687-11.927-16.922-33.514-4.985-48.202c2.771-3.409,6.056-6.149,9.651-8.198c-11.772-1.978-24.245,2.266-32.309,12.184
	C40.494,470.809,42.729,492.386,57.416,504.323z"/>
<g>
</g>
<g>
</g>
<g>
</g>
<g>
</g>
<g>
</g>
<g>
</g>
<g>
</g>
<g>
</g>
<g>
</g>
<g>
</g>
<g>
</g>
<g>
</g>
<g>
</g>
<g>
</g>
<g>
</g>
</svg>
